<?xml version="1.0" encoding="utf-8"?>
<!-- Generator: Adobe Illustrator 17.0.0, SVG Export Plug-In . SVG Version: 6.00 Build 0)  -->
<!DOCTYPE svg PUBLIC "-//W3C//DTD SVG 1.1//EN" "http://www.w3.org/Graphics/SVG/1.1/DTD/svg11.dtd">
<svg version="1.1" id="Layer_1" xmlns="http://www.w3.org/2000/svg" xmlns:xlink="http://www.w3.org/1999/xlink" x="0px" y="0px"
	 width="303.716px" height="66.813px" viewBox="0 0 303.716 66.813" enable-background="new 0 0 303.716 66.813"
	 xml:space="preserve">
<g>
	<g>
		<path fill="#666666" d="M93.944,21.575c0,1.639-1.001,2.91-2.593,3.412c2.001,0.545,3.138,2.158,3.138,4.002
			c0,3.274-3.047,4.16-5.775,4.16c-2.318,0-4.206,0-6.525,0V17.233c2.297,0,4.207,0,6.525,0
			C91.397,17.233,93.944,18.552,93.944,21.575z M83.416,24.44h5.458c1.909,0,3.91-0.592,3.91-2.865c0-2.318-2.092-3.297-4.07-3.297
			h-5.298V24.44z M83.416,31.968h5.298c2.001,0,4.57-0.479,4.57-3.002c-0.022-2.479-2.273-3.365-4.41-3.365c-1.91,0-3.548,0-5.458,0
			V31.968z"/>
		<path fill="#666666" d="M98.648,17.233v14.756h8.958v1.16H97.421V17.233H98.648z"/>
		<path fill="#666666" d="M124.817,25.214c-0.022,4.184-2.683,8.209-8.025,8.209c-5.344,0-8.027-4.047-8.027-8.254
			c0-4.275,2.66-8.185,8.027-8.185C122.157,16.983,124.841,20.917,124.817,25.214z M109.97,25.19
			c0.023,3.594,2.297,7.096,6.822,7.096c4.547,0,6.844-3.502,6.844-7.096c0-3.684-2.273-7.07-6.844-7.07
			C112.222,18.12,109.947,21.439,109.97,25.19z"/>
		<path fill="#666666" d="M140.868,30.944c-1.592,1.59-3.707,2.387-5.799,2.387c-5.365,0-8.162-3.752-8.186-8.049
			c-0.045-4.252,2.729-8.23,8.186-8.23c2.092,0,4.207,0.795,5.799,2.387l-0.842,0.729c-1.364-1.365-3.16-2.025-4.957-2.025
			c-4.639,0-7.025,3.275-7.002,7.094c0.045,3.731,2.409,6.959,7.002,6.959c1.797,0,3.615-0.682,4.98-2.023L140.868,30.944z"/>
		<path fill="#666666" d="M154.94,33.149h-1.547l-8.39-7.846v7.822h-1.228V17.233h1.228v7.252l7.731-7.252h1.478v0.113l-8.004,7.504
			l8.732,8.207V33.149z"/>
		<path fill="#666666" d="M169.694,30.944c-1.591,1.59-3.705,2.387-5.797,2.387c-5.367,0-8.163-3.752-8.185-8.049
			c-0.046-4.252,2.729-8.23,8.185-8.23c2.092,0,4.206,0.795,5.797,2.387l-0.841,0.729c-1.364-1.365-3.161-2.025-4.956-2.025
			c-4.639,0-7.026,3.275-7.004,7.094c0.045,3.731,2.41,6.959,7.004,6.959c1.795,0,3.615-0.682,4.979-2.023L169.694,30.944z"/>
		<path fill="#666666" d="M183.948,33.149v-7.231h-10.141v7.231h-1.228V17.233h1.228v7.572h10.141v-7.572h1.229v15.916H183.948z"/>
		<path fill="#666666" d="M201.342,33.149l-1.751-3.91h-9.505l-1.727,3.91h-1.319l7.14-15.916h1.343l7.139,15.916H201.342z
			 M199.113,28.101l-4.274-9.686l-4.275,9.686H199.113z"/>
		<path fill="#666666" d="M204.478,33.149V17.233h1.205v15.916H204.478z"/>
		<path fill="#666666" d="M209.729,17.233l10.71,13.164V17.233h1.205v15.916h-0.478l-10.732-13.143v13.143h-1.227V17.233H209.729z"
			/>
		<path d="M239.717,21.622l-5.184,6.912h-0.591l-5.07-6.936v11.574h-3.002V17.255h3.457l4.979,6.844l4.98-6.844h3.434v15.918h-3.002
			V21.622z"/>
		<path d="M245.559,33.149V17.233h2.979v15.916H245.559z"/>
		<path d="M261.814,17.21h3.002v15.94h-1.865v0.023l-8.367-10.756v10.732h-3.001V17.233h2.433l7.799,9.867V17.21z"/>
		<path d="M267.588,33.149V17.233h2.979v15.916H267.588z"/>
		<path d="M283.845,17.21h3.002v15.94h-1.865v0.023l-8.367-10.756v10.732h-3.001V17.233h2.433l7.799,9.867V17.21z"/>
		<path d="M301.419,21.12c-1.068-1.021-2.66-1.592-4.047-1.592c-3.411,0-5.479,2.594-5.479,5.867c0,2.615,1.523,5.32,5.479,5.32
			c1.25,0,2.342-0.272,3.592-1.272v-2.82h-4.069V23.94h6.821v6.707c-1.569,1.797-3.548,2.865-6.344,2.865
			c-5.98,0-8.413-3.934-8.413-8.117c0-4.479,2.797-8.617,8.413-8.617c2.137,0,4.274,0.818,5.911,2.434L301.419,21.12z"/>
	</g>
	<g>
		<path fill="#C3922E" d="M87.299,44.093c-0.261-0.435-0.975-0.845-1.798-0.845c-1.061,0-1.569,0.443-1.569,1.008
			c0,0.659,0.779,0.844,1.688,0.951c1.581,0.195,3.053,0.605,3.053,2.414c0,1.69-1.494,2.413-3.182,2.413
			c-1.549,0-2.74-0.476-3.303-1.861l1.191-0.616c0.335,0.834,1.213,1.201,2.133,1.201c0.898,0,1.742-0.314,1.742-1.137
			c0-0.715-0.746-1.006-1.754-1.114c-1.548-0.186-2.977-0.596-2.977-2.296c0-1.56,1.537-2.198,2.934-2.208
			c1.18,0,2.403,0.336,2.978,1.505L87.299,44.093z"/>
		<path fill="#C3922E" d="M100.91,46.095c-0.022,1.96-1.224,3.919-3.887,3.919s-3.897-1.915-3.897-3.907
			c0-1.993,1.277-3.996,3.897-3.996C99.633,42.11,100.932,44.113,100.91,46.095z M94.534,46.128
			c0.032,1.243,0.703,2.576,2.489,2.576c1.786,0,2.458-1.343,2.479-2.587c0.021-1.278-0.693-2.706-2.479-2.706
			C95.237,43.411,94.501,44.849,94.534,46.128z"/>
		<path fill="#C3922E" d="M107.073,42.263v6.256h3.898v1.322h-5.326v-7.578H107.073z"/>
		<path fill="#C3922E" d="M121.865,42.272v4.343c0,2.239-1.374,3.388-3.28,3.388c-1.818,0-3.367-1.103-3.367-3.388v-4.343h1.418
			v4.343c0,1.363,0.779,2.089,1.96,2.089c1.18,0,1.851-0.791,1.851-2.089v-4.343H121.865z"/>
		<path fill="#C3922E" d="M128.906,43.562h-2.403v-1.299c2.186,0,4.038,0,6.235,0v1.299h-2.403v6.279h-1.429V43.562z"/>
		<path fill="#C3922E" d="M137.299,49.841v-7.578h1.418v7.578H137.299z"/>
		<path fill="#C3922E" d="M151.419,46.095c-0.022,1.96-1.224,3.919-3.888,3.919c-2.663,0-3.896-1.915-3.896-3.907
			c0-1.993,1.276-3.996,3.896-3.996C150.141,42.11,151.439,44.113,151.419,46.095z M145.041,46.128
			c0.033,1.243,0.704,2.576,2.49,2.576c1.787,0,2.458-1.343,2.48-2.587c0.021-1.278-0.692-2.706-2.48-2.706
			C145.745,43.411,145.01,44.849,145.041,46.128z"/>
		<path fill="#C3922E" d="M161.134,42.252h1.428v7.589h-0.888v0.01l-3.983-5.119v5.109h-1.429v-7.578h1.159l3.713,4.699V42.252z"/>
		<path fill="#C3922E" d="M172.352,44.093c-0.26-0.435-0.975-0.845-1.797-0.845c-1.062,0-1.57,0.443-1.57,1.008
			c0,0.659,0.779,0.844,1.689,0.951c1.581,0.195,3.054,0.605,3.054,2.414c0,1.69-1.494,2.413-3.183,2.413
			c-1.549,0-2.74-0.476-3.303-1.861l1.191-0.616c0.335,0.834,1.212,1.201,2.132,1.201c0.899,0,1.743-0.314,1.743-1.137
			c0-0.715-0.746-1.006-1.753-1.114c-1.548-0.186-2.979-0.596-2.979-2.296c0-1.56,1.538-2.198,2.935-2.208
			c1.181,0,2.403,0.336,2.978,1.505L172.352,44.093z"/>
	</g>
	<g>
		<g>
			<linearGradient id="SVGID_1_" gradientUnits="userSpaceOnUse" x1="14.5418" y1="58.6285" x2="43.6731" y2="8.1716">
				<stop  offset="0" style="stop-color:#FBCC4A"/>
				<stop  offset="0.1453" style="stop-color:#EEBE43"/>
				<stop  offset="0.4643" style="stop-color:#D6A638"/>
				<stop  offset="0.7578" style="stop-color:#C89730"/>
				<stop  offset="1" style="stop-color:#C3922E"/>
			</linearGradient>
			<path fill="url(#SVGID_1_)" d="M51.902,12.973c2.066,1.2,4.197,2.293,6.198,3.602c0.17,1.98,0.047,33.096,0.011,33.689
				c-9.351,5.459-18.762,10.819-28.117,16.272c-0.543,0.392-1.219,0.351-1.769-0.01C18.857,61.099,9.474,55.692,0.094,50.281
				c-0.135-3.948-0.115-26.438,0-33.729c4.408-2.523,8.793-5.084,13.193-7.621c0.064,9.182,0.077,20.646,0.156,33.573
				c4.738,2.83,9.564,5.506,14.311,8.319c0.461,0.228,0.912,0.579,1.443,0.583c0.588-0.156,1.109-0.491,1.631-0.791
				c4.612-2.762,9.331-5.342,13.946-8.103c0.203-2.655,0.021-5.322,0.078-7.985c-0.067-3.405,0.136-6.816-0.078-10.218
				c-4.747-2.812-9.564-5.503-14.316-8.309c-0.589-0.31-1.294-0.826-1.958-0.385c-2.109,1.147-4.188,2.36-6.229,3.629
				c-0.025,1.647-0.002,3.298-0.014,4.925c2.137-1.062,4.118-2.405,6.219-3.532c0.737-0.483,1.513,0.183,2.168,0.5
				c2.807,1.672,5.643,3.302,8.496,4.89c0.578,0.365,1.404,0.693,1.332,1.519c0.103,2.695-0.018,5.399,0.024,8.097
				c-0.054,1.438,0.2,2.922-0.176,4.328c-0.77,0.687-1.727,1.109-2.609,1.629c-2.36,1.357-4.731,2.692-7.064,4.099
				c-0.457,0.257-0.911,0.547-1.429,0.682c-0.533-0.04-0.998-0.345-1.467-0.583c-2.93-1.736-5.888-3.43-8.851-5.107
				c-0.351-0.213-0.706-0.432-1.007-0.717c-0.347-1.224-0.143-2.517-0.174-3.771c0.006-9.398,0.019-18.797-0.008-28.19
				c0.017-0.524,0.02-1.057,0.167-1.564c0.455-0.508,1.083-0.814,1.66-1.156c2.804-1.545,5.553-3.185,8.321-4.793
				c0.428-0.212,0.86-0.482,1.35-0.5c0.99,0.293,1.825,0.934,2.712,1.436C38.592,5.266,45.248,9.119,51.902,12.973z M28.681,5.219
				c-1.247,0.563-5.411,3.131-6.423,3.805c0,1.651-0.026,3.325-0.018,4.973c2.145-1.159,4.214-2.368,6.365-3.549
				c0.678-0.338,1.356,0.173,1.944,0.463c4.4,2.59,8.845,5.106,13.256,7.673c1.809,1.068,3.682,2.025,5.418,3.203
				c0.039,7.751,0.045,15.506,0.006,23.257c-1.118,0.758-2.296,1.416-3.473,2.081c-4.602,2.655-9.218,5.292-13.808,7.972
				c-0.83,0.475-1.625,1.035-2.535,1.363c-0.557,0.195-1.076-0.217-1.562-0.439c-5.758-3.363-11.543-6.687-17.326-10.007
				c-0.522-0.307-1.024-0.642-1.532-0.974c-0.072-6.665,0.067-25.568-0.086-28.351c-1.546,0.727-3.036,1.57-4.431,2.558
				c-0.237,4.532-0.211,25.895,0.008,28.338c1.385,0.991,2.91,1.749,4.372,2.607c6.487,3.748,12.977,7.493,19.464,11.237
				c0.556,0.416,1.227,0.26,1.763-0.095c6.652-3.875,13.332-7.703,19.995-11.556c1.233-0.707,2.486-1.384,3.661-2.189
				c0.113-8.352-0.01-16.707,0.056-25.059c0.033-1.099,0.002-2.202-0.048-3.298c-7.754-4.668-15.684-9.044-23.474-13.646
				C29.788,5.361,29.231,4.923,28.681,5.219z M28.6,25.763c-1.082,0.448-2.039,1.146-3.063,1.715
				c-1.107,0.661-2.18,1.307-3.305,2.03c0.019,2.608,0.009,5.441-0.007,7.814c1.429,1.06,3.049,1.817,4.557,2.756
				c0.717,0.407,1.414,0.896,2.223,1.098c0.64,0,1.188-0.405,1.735-0.687c1.337-0.811,2.692-1.583,4.055-2.345
				c0.511-0.335,1.258-0.649,1.21-1.378c0.088-2.419,0.04-4.845-0.008-7.266c-1.663-1.197-3.523-2.073-5.254-3.167
				C30.092,26.012,29.358,25.413,28.6,25.763z"/>
		</g>
	</g>
</g>
</svg>
