<?xml version="1.0" encoding="utf-8"?>
<!-- Generator: Adobe Illustrator 17.0.0, SVG Export Plug-In . SVG Version: 6.00 Build 0)  -->
<!DOCTYPE svg PUBLIC "-//W3C//DTD SVG 1.1//EN" "http://www.w3.org/Graphics/SVG/1.1/DTD/svg11.dtd">
<svg version="1.1" id="Layer_1" xmlns="http://www.w3.org/2000/svg" xmlns:xlink="http://www.w3.org/1999/xlink" x="0px" y="0px"
	 width="80px" height="80px" viewBox="0 0 80 80" enable-background="new 0 0 80 80" xml:space="preserve">
<g>
	<g>
		
			<linearGradient id="SVGID_1_" gradientUnits="userSpaceOnUse" x1="25.3071" y1="5.4315" x2="54.4385" y2="55.8886" gradientTransform="matrix(1 0 0 -1 0.14 70.6538)">
			<stop  offset="0" style="stop-color:#FBCD4B"/>
			<stop  offset="0.1453" style="stop-color:#EDBD43"/>
			<stop  offset="0.4643" style="stop-color:#D7A737"/>
			<stop  offset="0.7578" style="stop-color:#C79730"/>
			<stop  offset="1" style="stop-color:#C2922E"/>
		</linearGradient>
		<path fill="url(#SVGID_1_)" d="M62.808,19.566c2.066,1.2,4.197,2.293,6.198,3.602c0.17,1.98,0.047,33.096,0.011,33.689
			C59.666,62.316,50.255,67.676,40.9,73.129c-0.543,0.392-1.219,0.351-1.769-0.01C29.763,67.692,20.38,62.285,11,56.874
			c-0.135-3.948-0.115-26.438,0-33.729c4.408-2.523,8.793-5.084,13.193-7.621c0.064,9.182,0.077,20.646,0.156,33.573
			c4.738,2.83,9.564,5.506,14.311,8.319c0.461,0.228,0.912,0.579,1.443,0.583c0.588-0.156,1.109-0.491,1.631-0.791
			c4.612-2.762,9.331-5.342,13.946-8.103c0.203-2.655,0.021-5.322,0.078-7.985c-0.067-3.405,0.136-6.816-0.078-10.218
			c-4.747-2.812-9.564-5.503-14.316-8.309c-0.589-0.31-1.294-0.826-1.958-0.385c-2.109,1.147-4.188,2.36-6.229,3.629
			c-0.025,1.647-0.002,3.298-0.014,4.925c2.137-1.062,4.118-2.405,6.219-3.532c0.737-0.483,1.513,0.183,2.168,0.5
			c2.807,1.672,5.643,3.302,8.496,4.89c0.578,0.365,1.404,0.693,1.332,1.519c0.103,2.695-0.018,5.399,0.024,8.097
			c-0.054,1.438,0.2,2.922-0.176,4.328c-0.77,0.687-1.727,1.109-2.609,1.629c-2.36,1.357-4.731,2.692-7.064,4.099
			c-0.457,0.257-0.911,0.547-1.429,0.682c-0.533-0.04-0.998-0.345-1.467-0.583c-2.93-1.736-5.888-3.43-8.851-5.107
			c-0.351-0.213-0.706-0.432-1.007-0.717c-0.347-1.224-0.143-2.517-0.174-3.771c0.006-9.398,0.019-18.797-0.008-28.19
			c0.017-0.524,0.02-1.057,0.167-1.564c0.455-0.508,1.083-0.814,1.66-1.156c2.804-1.545,5.553-3.185,8.321-4.793
			c0.428-0.212,0.86-0.482,1.35-0.5c0.99,0.293,1.825,0.934,2.712,1.436C49.498,11.859,56.154,15.712,62.808,19.566z M39.587,11.812
			c-1.247,0.563-5.411,3.131-6.423,3.805c0,1.651-0.026,3.325-0.018,4.973c2.145-1.159,4.214-2.368,6.365-3.549
			c0.678-0.338,1.356,0.173,1.944,0.463c4.4,2.59,8.845,5.106,13.256,7.673c1.809,1.068,3.682,2.025,5.418,3.203
			c0.039,7.751,0.045,15.506,0.006,23.257c-1.118,0.758-2.296,1.416-3.473,2.081c-4.602,2.655-9.218,5.292-13.808,7.972
			c-0.83,0.475-1.625,1.035-2.535,1.363c-0.557,0.195-1.076-0.217-1.562-0.439c-5.758-3.363-11.543-6.687-17.326-10.007
			c-0.522-0.307-1.024-0.642-1.532-0.974c-0.072-6.665,0.067-25.568-0.086-28.351c-1.546,0.727-3.036,1.57-4.431,2.558
			c-0.237,4.532-0.211,25.895,0.008,28.338c1.385,0.991,2.91,1.749,4.372,2.607c6.487,3.748,12.977,7.493,19.464,11.237
			c0.556,0.416,1.227,0.26,1.763-0.095c6.652-3.875,13.332-7.703,19.995-11.556c1.233-0.707,2.486-1.384,3.661-2.189
			c0.113-8.352-0.01-16.707,0.056-25.059c0.033-1.099,0.002-2.202-0.048-3.298c-7.754-4.668-15.684-9.044-23.474-13.646
			C40.694,11.954,40.137,11.516,39.587,11.812z M39.506,32.356c-1.082,0.448-2.039,1.146-3.063,1.715
			c-1.107,0.661-2.18,1.307-3.305,2.03c0.019,2.608,0.009,5.441-0.007,7.814c1.429,1.06,3.049,1.817,4.557,2.756
			c0.717,0.407,1.414,0.896,2.223,1.098c0.64,0,1.188-0.405,1.735-0.687c1.337-0.811,2.692-1.583,4.055-2.345
			c0.511-0.335,1.258-0.649,1.21-1.378c0.088-2.419,0.04-4.845-0.008-7.266c-1.663-1.197-3.523-2.073-5.254-3.167
			C40.998,32.605,40.264,32.006,39.506,32.356z"/>
	</g>
</g>
</svg>
